<svg id="Capa_1" data-name="Capa 1" xmlns="http://www.w3.org/2000/svg" viewBox="0 0 184 184"><defs><style>.cls-1{fill:#373639;}.cls-2{fill:none;}.cls-3{fill:#fcc122;}.cls-4{fill:#78ae9e;}</style></defs><title>logo-square</title><rect class="cls-1" width="184" height="184" rx="12.47"/><path class="cls-2" d="M70.93,85.89" transform="translate(-2.07 -2.36)"/><path class="cls-2" d="M51.7,66.38" transform="translate(-2.07 -2.36)"/><path class="cls-3" d="M103.06,80.31c.37-2.1.82-4.18,1.26-6.25s.93-4.15,1.45-6.21l.06-.25.27-.26c1.31-1.27,2.6-2.57,3.93-3.81l4-3.76.49-.46.8.07c2,.17,3.89.39,5.83.58s3.89.39,5.82.62l.7.08.51.56c2.58,2.8,5.11,5.65,7.63,8.51l.41.46.08.58c.53,3.9,1,7.82,1.42,11.73l0,.36-.07.28c-.52,2.1-1.07,4.2-1.54,6.33s-.93,4.25-1.35,6.39l-.59,3.22-.49,3.24c-.35,2.17-.71,4.34-1.14,6.52-.11-2.2-.16-4.41-.19-6.62l0-3.33c0-1.11.1-2.22.17-3.33.14-2.21.35-4.42.66-6.62s.63-4.4,1.08-6.58l0,.63c-.67-3.88-1.32-7.77-1.89-11.66l.48,1q-3.83-4.25-7.58-8.56l1.21.63c-1.93-.26-3.86-.56-5.79-.86s-3.86-.59-5.79-.91l1.3-.39-4.29,3.4c-1.42,1.14-2.89,2.22-4.34,3.34l.34-.51c-.74,2-1.55,3.95-2.33,5.93S103.94,78.37,103.06,80.31Z" transform="translate(-2.07 -2.36)"/><path class="cls-3" d="M49.15,67.63l6.62-.36,6.62-.3.31,0,.24.3,5.74,7.06.1.12.07.22,3.43,10.86-2.75.39-.27-10.32c-.1-3.44-.13-6.88-.2-10.32v-.5l.29-.47c1.93-3.13,3.82-6.3,5.79-9.41l.34-.54.61-.23L80,52.58l.52-.2.55.11C86,53.44,91,54.32,96,55.32l.87.17.45.73,5.54,9.1.22.35,0,.41c.48,3.58.91,7.16,1.34,10.75l1.29,10.76,1.21,10.77L108,109.14l0,.2,0,.14c-.8,3.73-1.67,7.45-2.51,11.18s-1.75,7.45-2.67,11.16q.68-5.7,1.45-11.38c.54-3.78,1-7.57,1.62-11.35v.34l-1.78-10.7L102.43,88l-1.62-10.71c-.53-3.58-1.07-7.15-1.56-10.73l.27.76-5.63-9,1.31.9c-5-.91-9.9-1.94-14.85-2.9l1.06-.09-4,1.49.94-.77c-2,3.11-4,6.18-6,9.28l.28-1c0,3.44,0,6.88-.13,10.32l-.2,10.32-.2,10.58-2.55-10.2-2.75-11,.17.34-5.17-7.48.55.27L55.77,68Z" transform="translate(-2.07 -2.36)"/><path class="cls-3" d="M47.43,130.47c-1.13,1.17-2.25,2.35-3.39,3.51l-.08.08H43.8c-2.15.15-4.3.3-6.45.41s-4.29.26-6.44.35h-.4l-.36-.32L25,129.8,19.84,125l-.22-.21-.15-.38c-2-5-3.86-10.05-5.8-15.07l-.37-1,.66-.86L19,101c1.68-2.18,3.33-4.39,5.05-6.54l.55-.69.83-.07,11.61-1,1-.08.61.69,6,6.7-3,1.76c-.65-2-1.31-4-1.93-6.06l-1.87-6.07-.1-.31,0-.24c.21-2.49.49-5,.73-7.47s.52-5,.8-7.48l.05-.42.29-.17q4.95-3,10-5.86-4.52,3.65-9.13,7.13l.34-.59c0,2.51,0,5-.08,7.52s-.06,5-.14,7.51l-.08-.54,2.24,6c.76,2,1.47,4,2.2,6l2.81,7.76-5.77-6-6.24-6.48,1.58.6L25.8,97.62l1.38-.76c-1.66,2.2-3.4,4.35-5.09,6.52L17,109.88l.28-1.82c1.72,5.1,3.52,10.18,5.17,15.3l-.37-.58,4.83,5.08L31.66,133l-.76-.31c2.15.07,4.3.2,6.45.3s4.3.23,6.45.36l-.25.09C44.83,132.43,46.14,131.46,47.43,130.47Z" transform="translate(-2.07 -2.36)"/><path class="cls-3" d="M44.33,116.41c.53,1.68,1,3.47,1.49,5.32.25.92.47,1.86.68,2.81l.63,2.88.28,1.25-1.49.31q-7.05,1.43-14.17,2.33l-1.79.24-.39-1.8c-.76-3.5-1.45-7-2-10.54l-.12-.71.28-.5c.73-1.29,1.47-2.58,2.23-3.85l.46-.78.68-.07c1.45-.16,2.9-.31,4.36-.42l2.18-.17c.72-.06,1.46-.08,2.19-.13l.41,0,.18.15C41.83,114,43.15,115.22,44.33,116.41Zm0,0c-1.75-.85-3.36-1.6-4.85-2.38l.59.12c-.7.21-1.4.44-2.1.63l-2.11.57c-1.41.4-2.82.75-4.24,1.09l1.15-.85c-.59,1.37-1.2,2.72-1.82,4.07l.16-1.2c.88,3.47,1.65,7,2.35,10.48l-2.19-1.57c4.75-.55,9.52-1,14.31-1.16l-1.21,1.56-.08-2.71c0-.92,0-1.84,0-2.79C44.24,120.39,44.27,118.45,44.33,116.41Z" transform="translate(-2.07 -2.36)"/><path class="cls-3" d="M107.71,125.56c1.6.24,3.21.45,4.82.63s3.22.33,4.84.44c3.24.24,6.5.36,9.77.54l-1.5,1.3c-.31-3.25-.59-6.5-.68-9.75l.13.69c-.78-1.86-1.5-3.75-2.19-5.64l.92,1q-2.75-1.53-5.41-3.18l.79.19c-1.81-.15-3.62-.27-5.43-.46l.81-.32-5,3.76.18-.32c-.52,1.83-1,3.67-1.51,5.52s-.89,3.7-1.26,5.57h.67Zm0,0H107c.36-1.86.66-3.74.94-5.63s.47-3.78.68-5.68v-.14l.17-.18,4.12-4.65.22-.25.59-.07c1.81-.2,3.61-.34,5.42-.5l.29,0,.5.22q2.88,1.26,5.69,2.66l.63.31.29.73c.75,1.87,1.48,3.75,2.15,5.65l.13.39v.3c-.06,3.25-.31,6.51-.6,9.76l-.14,1.63-1.36-.34c-3.14-.78-6.29-1.62-9.47-2.35-1.58-.38-3.17-.7-4.77-1S109.31,125.81,107.71,125.56Z" transform="translate(-2.07 -2.36)"/><path class="cls-3" d="M105.24,98.89a20.61,20.61,0,0,1-5.31,1.58,33.45,33.45,0,0,1-10.63,0A20.73,20.73,0,0,1,84,99a20.26,20.26,0,0,1,5.31-1.59,32.69,32.69,0,0,1,10.63,0A20.2,20.2,0,0,1,105.24,98.89Z" transform="translate(-2.07 -2.36)"/><path class="cls-3" d="M104.75,95.38A29.56,29.56,0,0,1,98.26,97a49,49,0,0,1-6.5.45A47.14,47.14,0,0,1,85.27,97a29,29,0,0,1-6.5-1.56,29.56,29.56,0,0,1,6.49-1.59,47.18,47.18,0,0,1,6.49-.44,48.91,48.91,0,0,1,6.5.41A30.23,30.23,0,0,1,104.75,95.38Z" transform="translate(-2.07 -2.36)"/><path class="cls-3" d="M132.85,100a21.47,21.47,0,0,1-5.61.63,34.26,34.26,0,0,1-10.7-1.81,21.46,21.46,0,0,1-5.09-2.46,21.07,21.07,0,0,1,5.61-.64,32.73,32.73,0,0,1,5.43.49,33.62,33.62,0,0,1,5.27,1.33A21.46,21.46,0,0,1,132.85,100Z" transform="translate(-2.07 -2.36)"/><path class="cls-3" d="M132.65,103.25a14.44,14.44,0,0,1-4.57,1,21.6,21.6,0,0,1-4.41-.16,22.27,22.27,0,0,1-4.29-1,14.9,14.9,0,0,1-4.14-2.15,14.74,14.74,0,0,1,4.56-1,22.76,22.76,0,0,1,8.71,1.19A15,15,0,0,1,132.65,103.25Z" transform="translate(-2.07 -2.36)"/><path class="cls-2" d="M45,102.33" transform="translate(-2.07 -2.36)"/><path class="cls-2" d="M72.91,101" transform="translate(-2.07 -2.36)"/><path class="cls-3" d="M72.74,95.94a23,23,0,0,1-5.34,2.34,36.82,36.82,0,0,1-11.11,1.57,22,22,0,0,1-5.78-.77,23,23,0,0,1,5.34-2.34A36.82,36.82,0,0,1,67,95.17,22.92,22.92,0,0,1,72.74,95.94Z" transform="translate(-2.07 -2.36)"/><path class="cls-3" d="M72.9,99a13,13,0,0,1-3.84,2.08,19.36,19.36,0,0,1-4,1,18.69,18.69,0,0,1-4.1.1,13.06,13.06,0,0,1-4.24-1A12.85,12.85,0,0,1,60.58,99a19.33,19.33,0,0,1,4-.94,18.71,18.71,0,0,1,4.1-.1A13,13,0,0,1,72.9,99Z" transform="translate(-2.07 -2.36)"/><path class="cls-3" d="M78.54,125.67l5.82-.62c1.88-.19,3.73-.38,5.54-.53s3.58-.31,5.34-.42,3.49-.24,5.23-.3l-1.75,1.45.8-4.89.15,1.19c-1.49-3-2.92-6-4.32-9l1.32,1.08c-2.71-.68-5.41-1.41-8.1-2.16l1,0c-2.39.73-4.81,1.4-7.22,2.08l.82-.71c-.8,1.41-1.67,2.79-2.51,4.19s-1.73,2.76-2.59,4.14l0-.42C78.26,122.2,78.36,123.84,78.54,125.67Zm0,0c-.51-1.41-1.11-3-1.66-4.73l-.06-.15.11-.27c.6-1.52,1.16-3,1.79-4.55s1.22-3,1.89-4.5l.21-.47.61-.25c2.32-.94,4.64-1.89,7-2.77l.44-.17.58.12c2.73.58,5.47,1.18,8.19,1.82l.9.22.42.86q2.18,4.52,4.21,9.07l.28.62-.13.57-1.07,4.84-.33,1.49-1.42,0c-1.92,0-3.84-.14-5.74-.26s-3.78-.22-5.62-.38-3.66-.32-5.44-.49S80.19,125.88,78.54,125.67Z" transform="translate(-2.07 -2.36)"/><path class="cls-3" d="M70.93,85.24q1.23,4.32,2.28,8.67c.35,1.45.72,2.9,1.05,4.35l1,4.36v.26c0,1.74,0,3.48.07,5.23s0,3.48,0,5.22c0,3.48,0,7-.1,10.44l0,1.67-1.68.19-4.78.55c-1.59.18-3.18.38-4.77.53l-9.56,1-2.16.21,0-2.11.19-9.38v-.5l.21-.34,4-6.43.31-.49.45-.14c2-.6,4-1.16,5.92-1.75l.34-.1.23.06c1.81.46,3.61,1,5.41,1.48l.34.09.12.22c.61,1.14,1.18,2.3,1.78,3.44s1.16,2.31,1.72,3.48c-.8-1-1.6-2-2.37-3.07s-1.56-2.06-2.31-3.11l.45.31c-1.86-.25-3.72-.46-5.56-.74l.56,0c-1.9.79-3.79,1.6-5.7,2.37l.75-.63-3.45,6.71.22-.84.25,9.39L54,123.85l9.55-1.1c1.59-.19,3.18-.32,4.77-.49l4.78-.47-1.72,1.86c.11-3.48.36-7,.53-10.43.08-1.73.23-3.47.34-5.21s.23-3.47.38-5.21l0,.27-.52-4.45c-.18-1.47-.31-3-.47-4.45Q71.22,89.73,70.93,85.24Z" transform="translate(-2.07 -2.36)"/><path class="cls-3" d="M74.06,130.72a4.88,4.88,0,0,1-1.74-1.59,4,4,0,0,1-.61-1.71,3.81,3.81,0,0,1,.24-1.8,4.71,4.71,0,0,1,1.38-1.91,4.83,4.83,0,0,1,1.75,1.59,3.75,3.75,0,0,1,.6,1.7,3.91,3.91,0,0,1-.24,1.8A4.86,4.86,0,0,1,74.06,130.72Z" transform="translate(-2.07 -2.36)"/><path class="cls-2" d="M71.22,86.26" transform="translate(-2.07 -2.36)"/><path class="cls-3" d="M130.17,129.13c-.91-2.53-1.79-5.06-2.65-7.61l0-.11,0-.18c.44-2,.93-3.9,1.4-5.85s.94-3.89,1.44-5.83l.06-.26.26-.25,3.9-3.87.07-.07.16-.1,6.35-3.94.18-.1.28-.07c1.9-.47,3.79-1,5.69-1.4L153,98.15l.28-.07.34,0,6.12.7.37,0,.36.21,10.28,6,.37.21.26.37c1,1.4,2,2.8,2.91,4.22l.38.56,0,.64c-.23,5.21-.4,10.42-.69,15.63l0,.78-.52.48-5,4.73-.55.52-.7,0c-3.39-.1-6.77-.3-10.16-.44-1.7-.09-3.39-.15-5.09-.26l-5.08-.29.29,0q-3,.63-6.09,1.21c-2,.39-4.06.79-6.09,1.15l-.32.05-.16-.19q-2.25-2.75-4.44-5.53c1.74,1.6,3.45,3.23,5.16,4.86l-.48-.14c2-.63,4-1.22,5.94-1.81s4-1.2,5.94-1.76l.1,0h.19l5.09-.12c1.7,0,3.39,0,5.09-.07,3.39,0,6.78-.1,10.18-.08l-1.25.5,4.84-4.9-.56,1.26c.08-5.22.29-10.43.44-15.64l.35,1.2q-1.49-2.1-2.92-4.22l.63.58-10.22-6.09.72.25-6.09-.9.62,0L148,102.85c-1.91.39-3.84.73-5.76,1.1l.46-.18-6.58,3.56.24-.17-4.2,3.54.33-.51q-1,2.85-2,5.68c-.67,1.89-1.31,3.78-2,5.66v-.29Q129.41,125.17,130.17,129.13Z" transform="translate(-2.07 -2.36)"/><path class="cls-3" d="M131.32,130l-.18,1.36v0l0,0c-.9,1.05-1.8,2.09-2.72,3.12l-.1.11h-.2c-1.89.1-3.79.18-5.68.24s-3.78.16-5.67.19c-3.78.1-7.56.2-11.35.23h-.61l-.49-.51-2.52-2.66,1.9.4c-2.34,1.18-4.71,2.29-7.06,3.44l-.36.17h-.46L91,136c-1.59,0-3.19-.09-4.78-.13l-9.55-.31-.75,0-.55-.52-2.6-2.49,2.33.29-4.53,2.48-.46.25h-.5c-3.38,0-6.75-.1-10.13-.21s-6.75-.17-10.12-.33l-.9,0-.41-.67-1.86-3L46,130.9v-.36c-.08-3.5-.05-7-.09-10.5,0-1.75,0-3.5,0-5.25s0-3.51.05-5.26v.08q-.52-2.89-1-5.81c.64,1.86,1.25,3.72,1.85,5.59v.09q.33,2.61.6,5.22c.18,1.75.4,3.49.56,5.23.34,3.49.66,7,.93,10.47l-.25-.74,2.05,2.9-1.31-.71c3.37-.1,6.75-.11,10.13-.15s6.75,0,10.12,0l-1,.24,4.5-2.53,1.25-.71,1.07,1,2.62,2.46-1.3-.55,9.55.43c1.59.07,3.18.12,4.77.22l4.77.27-.82.17c2.41-1,4.79-2.12,7.21-3.13l1.16-.48.74.88,2.34,2.82-1.1-.51c3.78.17,7.55.41,11.33.65,1.89.11,3.77.27,5.66.4s3.78.3,5.66.46l-.3.12c1-.9,2.1-1.78,3.16-2.67l0,.06Z" transform="translate(-2.07 -2.36)"/><path class="cls-3" d="M140.9,132.53c-1.56.44-3.05,1-4.68,1.39l-.69.16,0-.86c-.2-6.13-.13-12.23.16-18.33l.24-4.56s0-.18,0-.32a1.82,1.82,0,0,1,.09-.34,2.43,2.43,0,0,1,.19-.42,3.71,3.71,0,0,1,.36-.53,3.65,3.65,0,0,1,.92-.83,3.16,3.16,0,0,1,.54-.25,2.76,2.76,0,0,1,.54-.11h.6l.58,0,2.28.1c3,.17,6.09.36,9.13.62l1.07.09.45.86c.62,1.19,1.22,2.39,1.82,3.58l.27.55-.07.46c-.33,2.15-.68,4.31-1.08,6.46s-.81,4.29-1.28,6.43l-.05.24-.06.07a18.27,18.27,0,0,1-1.93,2.08c-.67.66-1.37,1.26-2,1.89.9-1.63,2-3.16,2.75-4.74l-.1.31c0-2.19.05-4.38.11-6.56s.17-4.37.3-6.54l.21,1c-.7-1.15-1.4-2.29-2.08-3.44L151,112c-3.05,0-6.1-.18-9.15-.32l-2.28-.13-.57,0-.28,0h.17a2.06,2.06,0,0,0,.4-.08,1,1,0,0,0,.28-.13l.09-.06s.07.06.18-.6l-.45,4.55q-.93,9.1-2.58,18.15l-.72-.69C137.63,132.64,139.27,132.45,140.9,132.53Z" transform="translate(-2.07 -2.36)"/><path class="cls-2" d="M17.45,86.88" transform="translate(-2.07 -2.36)"/><polygon class="cls-4" points="70.38 67.31 98.09 68.53 100.47 85.83 70.38 88.59 70.38 67.31"/><path class="cls-3" d="M72.42,69.63l27.76,1h.22l0,.22,2.48,17.29.06.39-.4,0-15,1.49c-5,.45-10,1-15,1.35l-.52,0V91c0-3.6.07-7.21.17-10.77Zm.07.07.26,10.73c.1,3.54.13,7,.17,10.52l-.51-.47c5-.52,10-.93,15-1.4l15-1.27-.34.43L99.89,70.93l.26.23Z" transform="translate(-2.07 -2.36)"/><path class="cls-3" d="M72.45,77.18q7-.74,14.12-1.4c2.35-.23,4.7-.51,7.06-.62s4.73-.19,7.11-.08v.1c-2.34.46-4.69.71-7,1s-4.72.3-7.08.42q-7.08.39-14.17.7Z" transform="translate(-2.07 -2.36)"/><path class="cls-3" d="M72.11,81.8q7.42-.12,14.84-.14c2.47,0,5-.09,7.42,0s4.94.23,7.41.56v.1c-2.48.25-5,.28-7.43.34s-4.94-.12-7.41-.21q-7.41-.24-14.83-.56Z" transform="translate(-2.07 -2.36)"/></svg>