<svg id="Capa_1" data-name="Capa 1" xmlns="http://www.w3.org/2000/svg" viewBox="0 0 185.46 185.46"><defs><style>.cls-1{fill:#373639;}.cls-2{fill:none;}.cls-3{fill:#fcc122;}.cls-4{fill:#78ae9e;}</style></defs><title>logo-circle</title><circle class="cls-1" cx="92.73" cy="92.73" r="92.73"/><path class="cls-2" d="M71,79.25" transform="translate(-1.41 -1.98)"/><path class="cls-2" d="M51.77,59.74" transform="translate(-1.41 -1.98)"/><path class="cls-3" d="M103.13,73.67c.38-2.1.82-4.18,1.27-6.26s.92-4.15,1.44-6.2l.06-.25.27-.26c1.31-1.27,2.6-2.57,3.93-3.81l4-3.76.49-.47.81.08c1.94.17,3.88.38,5.82.57s3.89.39,5.83.63l.7.08.5.55c2.58,2.81,5.12,5.66,7.64,8.52l.4.46.08.58c.53,3.9,1,7.81,1.42,11.73l0,.36-.07.27c-.52,2.11-1.06,4.21-1.54,6.33s-.92,4.26-1.34,6.4l-.6,3.22-.49,3.24c-.34,2.17-.7,4.34-1.13,6.52-.12-2.2-.16-4.41-.2-6.63l0-3.33c0-1.11.1-2.21.17-3.32.15-2.21.36-4.42.67-6.62s.62-4.41,1.08-6.58l0,.63c-.66-3.89-1.31-7.77-1.88-11.67l.48,1c-2.55-2.83-5.09-5.67-7.58-8.56l1.2.64c-1.93-.26-3.86-.56-5.79-.86s-3.86-.59-5.79-.91l1.3-.39L112,59c-1.42,1.14-2.89,2.23-4.33,3.34l.33-.5c-.74,2-1.55,3.95-2.33,5.93S104,71.73,103.13,73.67Z" transform="translate(-1.41 -1.98)"/><path class="cls-3" d="M49.22,61l6.62-.37,6.62-.3h.32l.23.29,5.74,7.06.1.13.07.22,3.43,10.86-2.75.38-.27-10.31c-.1-3.44-.13-6.88-.2-10.32v-.5l.29-.47c1.93-3.14,3.83-6.3,5.79-9.42l.34-.54.61-.23,3.95-1.52.51-.2.55.1c5,.95,9.92,1.84,14.87,2.83l.86.18.45.73,5.55,9.1.21.35.06.4c.48,3.58.9,7.17,1.34,10.75l1.29,10.76L107,91.71l1.12,10.78,0,.21,0,.13c-.8,3.74-1.67,7.46-2.51,11.19s-1.74,7.44-2.67,11.15q.67-5.7,1.45-11.38c.54-3.78,1-7.57,1.62-11.34v.33L104.2,92.09l-1.7-10.7-1.61-10.72c-.54-3.57-1.08-7.14-1.57-10.72l.27.76L94,51.66l1.31.91c-5-.91-9.9-1.94-14.85-2.9l1.06-.09-4,1.48.94-.77c-2,3.12-4,6.19-6,9.28l.28-1c0,3.44,0,6.88-.12,10.31l-.2,10.32L72.2,89.83l-2.54-10.2-2.76-11,.17.34L61.9,61.43l.56.28-6.62-.33Z" transform="translate(-1.41 -1.98)"/><path class="cls-3" d="M47.5,123.83c-1.13,1.17-2.25,2.35-3.39,3.51l-.08.08h-.16c-2.15.14-4.3.3-6.44.41s-4.3.26-6.45.34l-.4,0-.36-.33L25,123.15l-5.13-4.78-.22-.2-.15-.38c-2-5-3.86-10.05-5.8-15.08l-.37-1,.66-.86,5-6.56c1.69-2.18,3.34-4.39,5.05-6.55l.55-.68L25.5,87l11.6-1,1-.09.62.69,6,6.7-3,1.77c-.65-2-1.31-4-1.92-6.06L38,82.93l-.09-.3,0-.24c.2-2.5.48-5,.73-7.48s.51-5,.79-7.47l.05-.42.29-.17q4.95-3,10-5.86-4.52,3.65-9.13,7.13l.33-.59c0,2.5,0,5-.07,7.51s-.06,5-.15,7.52L40.65,82,42.89,88c.75,2,1.47,4,2.19,6l2.81,7.76-5.77-6-6.24-6.49,1.58.61L25.87,91l1.38-.76c-1.66,2.2-3.39,4.34-5.09,6.52l-5.11,6.5.29-1.83c1.71,5.11,3.51,10.18,5.16,15.31l-.37-.59L27,121.21l4.77,5.14L31,126c2.14.07,4.29.2,6.44.29s4.3.24,6.45.37l-.24.09C44.91,125.79,46.21,124.82,47.5,123.83Z" transform="translate(-1.41 -1.98)"/><path class="cls-3" d="M44.4,109.76c.54,1.68,1,3.47,1.5,5.32.24.92.47,1.86.67,2.81l.64,2.88.27,1.26-1.48.3c-4.71,1-9.43,1.72-14.17,2.34l-1.8.23-.39-1.8q-1.14-5.23-2-10.54l-.12-.71.28-.49q1.1-1.94,2.23-3.86l.46-.77.69-.07c1.44-.16,2.89-.32,4.35-.42l2.18-.17c.73-.07,1.46-.09,2.19-.13l.41,0,.18.16C41.9,107.31,43.22,108.58,44.4,109.76Zm0,0c-1.75-.84-3.36-1.59-4.85-2.38l.6.13c-.71.21-1.4.44-2.11.62l-2.11.58c-1.41.39-2.82.74-4.24,1.09l1.15-.85c-.59,1.37-1.2,2.72-1.81,4.07l.16-1.2c.87,3.47,1.64,7,2.34,10.47l-2.19-1.56c4.75-.55,9.52-1,14.32-1.16l-1.21,1.56-.08-2.72c0-.91,0-1.84,0-2.78C44.31,113.75,44.34,111.81,44.4,109.76Z" transform="translate(-1.41 -1.98)"/><path class="cls-3" d="M107.78,118.92c1.61.23,3.21.45,4.82.63s3.22.33,4.84.43c3.24.24,6.5.37,9.77.55l-1.5,1.29c-.31-3.25-.59-6.5-.67-9.75l.13.69c-.79-1.86-1.5-3.74-2.2-5.63l.93,1q-2.75-1.53-5.42-3.18l.79.19c-1.81-.15-3.62-.27-5.43-.46l.81-.32-4.94,3.75.18-.32c-.53,1.84-1.06,3.67-1.52,5.52s-.88,3.71-1.26,5.57h.67Zm0,0h-.68q.54-2.81.94-5.63c.27-1.89.47-3.79.68-5.69l0-.13.16-.19,4.12-4.64.22-.26.59-.06c1.81-.2,3.62-.34,5.43-.5l.29,0,.5.22c1.91.85,3.81,1.73,5.68,2.66l.63.32.3.72c.75,1.87,1.48,3.75,2.14,5.66l.13.39v.3c-.07,3.25-.32,6.5-.61,9.75l-.14,1.64-1.36-.34c-3.14-.79-6.29-1.63-9.46-2.35-1.59-.38-3.18-.71-4.78-1S109.39,119.17,107.78,118.92Z" transform="translate(-1.41 -1.98)"/><path class="cls-3" d="M105.31,92.24A20.41,20.41,0,0,1,100,93.83a32.81,32.81,0,0,1-5.31.45,31.67,31.67,0,0,1-5.31-.41,20.09,20.09,0,0,1-5.32-1.55,20.08,20.08,0,0,1,5.3-1.59,31.93,31.93,0,0,1,5.32-.45,33.92,33.92,0,0,1,5.31.41A20.87,20.87,0,0,1,105.31,92.24Z" transform="translate(-1.41 -1.98)"/><path class="cls-3" d="M104.82,88.74a29.52,29.52,0,0,1-6.49,1.58,49.27,49.27,0,0,1-13,0,29,29,0,0,1-6.5-1.55,29,29,0,0,1,6.49-1.59,48.71,48.71,0,0,1,13,0A29.52,29.52,0,0,1,104.82,88.74Z" transform="translate(-1.41 -1.98)"/><path class="cls-3" d="M132.92,93.37a21.07,21.07,0,0,1-5.61.64,34.89,34.89,0,0,1-5.42-.49,33.46,33.46,0,0,1-5.28-1.33,20.89,20.89,0,0,1-5.09-2.46,21.14,21.14,0,0,1,5.62-.64,33.71,33.71,0,0,1,5.42.49,34.05,34.05,0,0,1,5.28,1.34A21.36,21.36,0,0,1,132.92,93.37Z" transform="translate(-1.41 -1.98)"/><path class="cls-3" d="M132.72,96.61a15,15,0,0,1-4.56,1,23.13,23.13,0,0,1-4.41-.16,22.22,22.22,0,0,1-4.3-1,14.77,14.77,0,0,1-4.14-2.15,14.44,14.44,0,0,1,4.56-1,21.6,21.6,0,0,1,4.41.16,22.25,22.25,0,0,1,4.3,1A14.73,14.73,0,0,1,132.72,96.61Z" transform="translate(-1.41 -1.98)"/><path class="cls-2" d="M45.06,95.68" transform="translate(-1.41 -1.98)"/><path class="cls-2" d="M73,94.39" transform="translate(-1.41 -1.98)"/><path class="cls-3" d="M72.81,89.29a22.55,22.55,0,0,1-5.34,2.34A37.44,37.44,0,0,1,62,92.85a36.18,36.18,0,0,1-5.62.36,22.4,22.4,0,0,1-5.77-.77,21.92,21.92,0,0,1,5.33-2.34,35.11,35.11,0,0,1,5.5-1.21A36.13,36.13,0,0,1,67,88.53,22.9,22.9,0,0,1,72.81,89.29Z" transform="translate(-1.41 -1.98)"/><path class="cls-3" d="M73,92.36a13.6,13.6,0,0,1-3.83,2.08,20,20,0,0,1-4,1,19.33,19.33,0,0,1-4.1.1,13.15,13.15,0,0,1-4.24-1,13,13,0,0,1,3.84-2.08,18.68,18.68,0,0,1,4-1,19.24,19.24,0,0,1,4.09-.09A13,13,0,0,1,73,92.36Z" transform="translate(-1.41 -1.98)"/><path class="cls-3" d="M78.61,119l5.82-.62c1.89-.18,3.74-.38,5.54-.52s3.58-.32,5.34-.43,3.5-.23,5.23-.3l-1.75,1.46.8-4.89.15,1.18q-2.22-4.47-4.32-9L96.75,107c-2.71-.68-5.41-1.41-8.11-2.16l1,0c-2.39.74-4.8,1.41-7.22,2.09l.82-.72c-.79,1.42-1.67,2.8-2.5,4.19s-1.74,2.76-2.6,4.14l0-.42C78.34,115.55,78.43,117.2,78.61,119Zm0,0c-.51-1.41-1.1-3-1.66-4.72l0-.16.1-.26c.6-1.52,1.16-3.06,1.8-4.55s1.21-3,1.88-4.51l.21-.46.61-.25c2.32-.94,4.64-1.89,7-2.78l.44-.16.58.12q4.11.85,8.19,1.82l.9.21.42.87q2.17,4.5,4.22,9.07l.27.61-.12.57-1.07,4.84-.33,1.5-1.43,0c-1.92-.06-3.84-.15-5.73-.26s-3.79-.22-5.63-.39-3.66-.31-5.43-.49S80.26,119.24,78.61,119Z" transform="translate(-1.41 -1.98)"/><path class="cls-3" d="M71,78.6q1.23,4.32,2.28,8.67c.35,1.45.73,2.89,1,4.35l1,4.36v.26c0,1.74,0,3.48.06,5.22s0,3.48,0,5.22c0,3.48,0,7-.11,10.44l0,1.67-1.68.2-4.77.55c-1.59.17-3.18.38-4.78.53l-9.56,1-2.16.21,0-2.11.19-9.39v-.5l.21-.34,4-6.42.3-.5.45-.13c2-.6,4-1.17,5.92-1.75l.34-.1.23.06c1.81.46,3.61,1,5.42,1.48l.33.09.12.22c.61,1.13,1.18,2.29,1.78,3.44s1.16,2.31,1.72,3.47c-.8-1-1.59-2-2.37-3.07s-1.56-2.06-2.31-3.1l.45.31c-1.85-.25-3.71-.46-5.56-.74l.57,0c-1.91.78-3.8,1.59-5.71,2.36l.75-.63-3.45,6.72.22-.84.26,9.38-2.12-1.89,9.54-1.1c1.59-.19,3.18-.33,4.78-.49l4.78-.48L71.47,117c.12-3.48.36-7,.53-10.43.08-1.74.23-3.47.34-5.21s.23-3.47.38-5.21l0,.26L72.22,92c-.18-1.48-.31-3-.47-4.45C71.44,84.56,71.19,81.59,71,78.6Z" transform="translate(-1.41 -1.98)"/><path class="cls-3" d="M74.13,124.07a4.88,4.88,0,0,1-1.74-1.59A3.83,3.83,0,0,1,72,119a4.84,4.84,0,0,1,1.38-1.91,4.73,4.73,0,0,1,1.75,1.58,3.82,3.82,0,0,1,.36,3.51A4.8,4.8,0,0,1,74.13,124.07Z" transform="translate(-1.41 -1.98)"/><path class="cls-2" d="M71.29,79.62" transform="translate(-1.41 -1.98)"/><path class="cls-3" d="M130.24,122.48q-1.37-3.8-2.65-7.6l0-.11,0-.19c.44-2,.93-3.89,1.39-5.84s.95-3.89,1.44-5.83l.07-.26.25-.26,3.9-3.86.07-.08.16-.1,6.36-3.93.17-.11.28-.07c1.9-.46,3.79-.95,5.7-1.39l5.7-1.35.28-.06.34,0,6.12.7.37,0,.36.2,10.29,6,.36.21.26.37c1,1.39,2,2.8,2.92,4.21l.37.57,0,.64c-.24,5.21-.4,10.42-.7,15.63l0,.78-.51.48-5,4.73-.54.51-.7,0c-3.39-.1-6.78-.29-10.17-.44-1.7-.08-3.39-.14-5.08-.25l-5.09-.29.29,0c-2,.43-4.05.82-6.08,1.21s-4.06.79-6.1,1.16l-.31,0-.17-.2q-2.25-2.73-4.44-5.52,2.61,2.4,5.16,4.86l-.48-.14c2-.63,4-1.22,5.94-1.82s4-1.19,5.95-1.76l.09,0h.19l5.09-.11c1.7,0,3.4,0,5.09-.07,3.39,0,6.79-.1,10.18-.08l-1.25.49,4.84-4.89-.56,1.26c.08-5.22.3-10.43.44-15.65l.35,1.2c-1-1.39-2-2.8-2.91-4.21l.62.58-10.22-6.09.73.25-6.1-.9.62,0-5.74,1.15c-1.92.4-3.84.74-5.76,1.11l.45-.18-6.57,3.56.23-.18-4.19,3.55.32-.51c-.64,1.89-1.29,3.79-2,5.68s-1.31,3.78-2,5.66v-.3C129.21,117.21,129.73,119.85,130.24,122.48Z" transform="translate(-1.41 -1.98)"/><path class="cls-3" d="M131.39,123.32l-.18,1.36v0l0,0c-.9,1-1.79,2.09-2.71,3.11l-.1.12h-.21c-1.89.09-3.78.18-5.67.24s-3.79.15-5.68.19c-3.78.1-7.56.2-11.34.23h-.62l-.48-.51-2.52-2.66,1.89.39c-2.33,1.19-4.71,2.29-7.06,3.44l-.35.18h-.47l-4.78-.09c-1.59,0-3.18-.09-4.77-.14l-9.56-.3-.75,0-.54-.53-2.6-2.49,2.32.3-4.53,2.47-.46.25h-.5q-5.07-.06-10.12-.22c-3.38-.1-6.75-.17-10.13-.32l-.9,0-.41-.68-1.86-3-.23-.38v-.36c-.08-3.5,0-7-.09-10.5,0-1.75,0-3.51,0-5.26s0-3.5.05-5.26V103c-.34-1.93-.67-3.87-1-5.82q1,2.79,1.85,5.6h0v.08q.33,2.61.6,5.22c.19,1.74.4,3.49.56,5.23.34,3.49.67,7,.93,10.47l-.24-.74,2,2.9-1.31-.72c3.38-.09,6.75-.1,10.13-.14s6.75-.06,10.12,0l-1,.25,4.5-2.53,1.26-.71,1.06,1,2.63,2.47-1.3-.55,9.54.42c1.59.08,3.18.13,4.77.23l4.78.27-.83.16c2.41-1,4.79-2.12,7.21-3.12l1.17-.48.73.88,2.35,2.81-1.11-.51c3.78.18,7.56.42,11.33.66,1.89.11,3.78.27,5.66.4s3.78.29,5.67.46l-.31.12c1-.9,2.1-1.79,3.16-2.67l0,.06Z" transform="translate(-1.41 -1.98)"/><path class="cls-3" d="M141,125.88c-1.56.45-3.05,1-4.68,1.39l-.69.17,0-.86c-.21-6.13-.14-12.24.15-18.33l.25-4.57a1.44,1.44,0,0,1,0-.31,2.65,2.65,0,0,1,.09-.34,3.81,3.81,0,0,1,.19-.43,4.39,4.39,0,0,1,.36-.53,3.53,3.53,0,0,1,.93-.82,2.13,2.13,0,0,1,.54-.25,1.71,1.71,0,0,1,.53-.11h.61l.57,0,2.28.1c3,.17,6.09.35,9.13.61l1.08.1.45.86c.62,1.18,1.21,2.38,1.81,3.58l.28.55-.07.46c-.34,2.15-.69,4.3-1.09,6.45s-.8,4.3-1.28,6.44l-.05.23,0,.07a18.52,18.52,0,0,1-1.94,2.09c-.67.65-1.37,1.25-2,1.89.9-1.63,2-3.17,2.76-4.74l-.11.3c0-2.19,0-4.37.11-6.56s.18-4.36.31-6.54l.2,1c-.7-1.14-1.4-2.28-2.08-3.43l1.53.95c-3.05,0-6.1-.18-9.14-.33l-2.29-.13-.57,0H139a2.15,2.15,0,0,0,.39-.07,1.24,1.24,0,0,0,.28-.13l.09-.06s.07.06.18-.6l-.44,4.55c-.63,6.07-1.48,12.12-2.59,18.15l-.72-.7C137.71,126,139.35,125.8,141,125.88Z" transform="translate(-1.41 -1.98)"/><path class="cls-2" d="M17.52,80.24" transform="translate(-1.41 -1.98)"/><polygon class="cls-4" points="71.11 61.04 98.82 62.27 101.2 79.57 71.11 82.32 71.11 61.04"/><path class="cls-3" d="M72.49,63l27.76,1h.22l0,.23L103,81.5l.05.39-.4,0-15,1.49c-5,.45-10,1-15,1.35l-.52,0V84.3c0-3.6.08-7.2.17-10.76Zm.07.07.26,10.73c.1,3.53.13,7,.17,10.51l-.51-.46c5-.53,10-.94,15-1.41l15.06-1.26-.35.43L100,64.28l.25.24Z" transform="translate(-1.41 -1.98)"/><path class="cls-3" d="M72.52,70.54q7.07-.75,14.12-1.4c2.35-.23,4.7-.52,7.07-.62s4.72-.19,7.1-.08v.1c-2.34.46-4.69.71-7,1s-4.72.31-7.08.43q-7.08.39-14.17.7Z" transform="translate(-1.41 -1.98)"/><path class="cls-3" d="M72.19,75.15Q79.6,75,87,75c2.48,0,5-.1,7.42,0s4.94.23,7.41.55v.1c-2.48.25-4.95.29-7.42.34s-5-.11-7.42-.2q-7.41-.24-14.83-.57Z" transform="translate(-1.41 -1.98)"/></svg>